<svg width="22" height="22" viewBox="0 0 22 22" fill="none" xmlns="http://www.w3.org/2000/svg">
<g clip-path="url(#clip0_691_553)">
<path d="M1.07393 21.9997C0.861442 21.9997 0.653714 21.9367 0.477022 21.8187C0.300331 21.7006 0.162615 21.5329 0.0812934 21.3365C-2.81218e-05 21.1402 -0.0213016 20.9242 0.020164 20.7158C0.0616295 20.5074 0.163971 20.316 0.314244 20.1657L20.1658 0.314185C20.3673 0.112703 20.6406 -0.000488281 20.9255 -0.000488281C21.2104 -0.000488281 21.4837 0.112703 21.6852 0.314185C21.8867 0.515666 21.9999 0.788934 21.9999 1.07387C21.9999 1.35881 21.8867 1.63208 21.6852 1.83356L1.83362 21.6851C1.73395 21.785 1.61552 21.8642 1.48515 21.9182C1.35478 21.9722 1.21503 21.9998 1.07393 21.9997Z" fill="#FBB731"/>
<path d="M20.9259 21.9997C20.7848 21.9998 20.6451 21.9722 20.5147 21.9182C20.3843 21.8642 20.2659 21.785 20.1662 21.6851L0.314673 1.83356C0.113191 1.63208 0 1.35881 0 1.07387C0 0.788934 0.113191 0.515666 0.314673 0.314185C0.516155 0.112703 0.789422 -0.000488281 1.07436 -0.000488281C1.3593 -0.000488281 1.63257 0.112703 1.83405 0.314185L21.6856 20.1657C21.8359 20.316 21.9382 20.5074 21.9797 20.7158C22.0212 20.9242 21.9999 21.1402 21.9186 21.3365C21.8372 21.5329 21.6995 21.7006 21.5228 21.8187C21.3461 21.9367 21.1384 21.9997 20.9259 21.9997V21.9997Z" fill="#FBB731"/>
</g>
<defs>
<clipPath id="clip0_691_553">
<rect width="22" height="22" fill="white"/>
</clipPath>
</defs>
</svg>
